<svg xmlns="http://www.w3.org/2000/svg" viewBox="0 0 32 32" width="32" height="32">
  <defs>
    <linearGradient id="gradient" x1="0%" y1="0%" x2="100%" y2="100%">
      <stop offset="0%" stop-color="#4361ee"/>
      <stop offset="100%" stop-color="#7209b7"/>
    </linearGradient>
  </defs>
  <circle cx="16" cy="16" r="14" fill="url(#gradient)" stroke="none"/>
  <path d="M16 8c2-2 4.5-2.5 7-2 3 .7 5 3 5 5.5 0 3-2.5 5.5-5 8h-14c-2.5-2.5-5-5-5-8 0-2.5 2-4.8 5-5.5 2.5-.5 5 0 7 2" fill="#fff" opacity="0.9"/>
  <path d="M16 12c1.5-1.5 3-3 3-4.5s-1.5-3-3-3-3 1.5-3 3 1.5 3 3 4.5z" fill="#fff" opacity="0.7"/>
</svg>